custom-analysis
version=1
nRows=4
nColumns=98
inDegrees=no

This file contains tibia displacement and acting force.

Units are S.I. units (seconds, meters, Newtons, ...)
Angles are in degrees.

endheader
time	APT	SIT	knee_angle	aACL_R_force	pACL_R_force	aPCL_R_force	pPCL_R_force	aMCL_R_force	mMCL_R_force	pMCL_R_force	aLCL_R_force	mLCL_R_force	pLCL_R_force	aPCL_L_force	pPCL_L_force	aMCL_L_force	aLCL_L_force	aACL_R_length	pACL_R_length	aPCL_R_length	pPCL_R_length	aMCL_R_length	mMCL_R_length	pMCL_R_length	aLCL_R_length	mLCL_R_length	pLCL_R_length	aPCL_L_length	pPCL_L_length	aMCL_L_length	aLCL_L_length	aACL_R_strain	pACL_R_strain	aPCL_R_strain	pPCL_R_strain	aMCL_R_strain	mMCL_R_strain	pMCL_R_strain	aLCL_R_strain	mLCL_R_strain	pLCL_R_strain	aPCL_L_strain	pPCL_L_strain	aMCL_L_strain	aLCL_L_strain	femur_lat_meniscii_r.femur_lat_r.force.X	femur_lat_meniscii_r.femur_lat_r.force.Y	femur_lat_meniscii_r.femur_lat_r.force.Z	femur_lat_meniscii_r.femur_lat_r.torque.X	femur_lat_meniscii_r.femur_lat_r.torque.Y	femur_lat_meniscii_r.femur_lat_r.torque.Z	femur_lat_meniscii_r.meniscus_lat_r.force.X	femur_lat_meniscii_r.meniscus_lat_r.force.Y	femur_lat_meniscii_r.meniscus_lat_r.force.Z	femur_lat_meniscii_r.meniscus_lat_r.torque.X	femur_lat_meniscii_r.meniscus_lat_r.torque.Y	femur_lat_meniscii_r.meniscus_lat_r.torque.Z	femur_med_meniscii_r.femur_med_r.force.X	femur_med_meniscii_r.femur_med_r.force.Y	femur_med_meniscii_r.femur_med_r.force.Z	femur_med_meniscii_r.femur_med_r.torque.X	femur_med_meniscii_r.femur_med_r.torque.Y	femur_med_meniscii_r.femur_med_r.torque.Z	femur_med_meniscii_r.meniscus_med_r.force.X	femur_med_meniscii_r.meniscus_med_r.force.Y	femur_med_meniscii_r.meniscus_med_r.force.Z	femur_med_meniscii_r.meniscus_med_r.torque.X	femur_med_meniscii_r.meniscus_med_r.torque.Y	femur_med_meniscii_r.meniscus_med_r.torque.Z	femur_med_tibia_r.tibia_upper_r.force.X	femur_med_tibia_r.tibia_upper_r.force.Y	femur_med_tibia_r.tibia_upper_r.force.Z	femur_med_tibia_r.tibia_upper_r.torque.X	femur_med_tibia_r.tibia_upper_r.torque.Y	femur_med_tibia_r.tibia_upper_r.torque.Z	femur_med_tibia_r.femur_med_r.force.X	femur_med_tibia_r.femur_med_r.force.Y	femur_med_tibia_r.femur_med_r.force.Z	femur_med_tibia_r.femur_med_r.torque.X	femur_med_tibia_r.femur_med_r.torque.Y	femur_med_tibia_r.femur_med_r.torque.Z	femur_lat_tibia_r.tibia_upper_r.force.X	femur_lat_tibia_r.tibia_upper_r.force.Y	femur_lat_tibia_r.tibia_upper_r.force.Z	femur_lat_tibia_r.tibia_upper_r.torque.X	femur_lat_tibia_r.tibia_upper_r.torque.Y	femur_lat_tibia_r.tibia_upper_r.torque.Z	femur_lat_tibia_r.femur_lat_r.force.X	femur_lat_tibia_r.femur_lat_r.force.Y	femur_lat_tibia_r.femur_lat_r.force.Z	femur_lat_tibia_r.femur_lat_r.torque.X	femur_lat_tibia_r.femur_lat_r.torque.Y	femur_lat_tibia_r.femur_lat_r.torque.Z	femur_lat_meniscii_force_r	femur_med_meniscii_force_r	femur_lat_tibia_force_r	femur_med_tibia_force_r
      0.16410936	      0.01275249	      0.01728792	     56.78633766	     -5.88013152	      0.00000000	    578.42447457	    378.28225061	      0.00000000	      0.00000000	      0.00000000	      0.00000000	      0.00000000	      0.00000000	      0.00000000	      0.00000000	      0.00000001	      0.00000000	      0.03109714	      0.02381423	      0.03494443	      0.03244662	      0.05953273	      0.05922229	      0.05633029	      0.05244549	      0.04772300	      0.04285301	      0.01525851	      0.01651186	      0.06550154	      0.04489616	      0.00295562	     -0.04966221	      0.12378509	      0.08561413	     -0.00823409	     -0.00955299	     -0.04082730	     -0.06309194	     -0.15262459	     -0.18129914	      0.00000079	     -0.32847694	      0.00000060	     -0.00000086	     76.10509724	    148.73469850	     14.01069513	     -9.22394619	      1.81004756	     29.61172453	    -76.10509724	   -148.73469850	    -14.01069513	      4.03703937	     -2.21180021	      2.82810823	     19.51791452	     17.39099668	     10.54763667	     -3.86381802	     -0.45611576	      7.85130369	    -19.51791452	    -17.39099668	    -10.54763667	     -0.18280029	      0.21029005	      0.04209529	   -789.99121412	   -714.46627108	    222.99447494	    -16.49135579	     17.75058535	     -1.65522850	    789.99121412	    714.46627108	   -222.99447494	    103.66563824	    -14.35611707	    321.35889089	      0.00000000	      0.00000000	      0.00000000	      0.00000000	      0.00000000	      0.00000000	      0.00000000	      0.00000000	      0.00000000	      0.00000000	      0.00000000	      0.00000000	    167.66125355	     28.18950855	      0.00000000	   1088.24386364
      0.16436156	      0.01276845	      0.01733646	     56.92296102	     -5.90624576	      0.00000000	    581.13012311	    379.60329319	      0.00000000	      0.00000000	      0.00000000	      0.00000000	      0.00000000	      0.00000000	      0.00000000	      0.00000000	      0.00000001	      0.00000000	      0.03109330	      0.02381198	      0.03496013	      0.03245543	      0.05954563	      0.05922446	      0.05632542	      0.05243747	      0.04770893	      0.04283591	      0.01525851	      0.01651186	      0.06550154	      0.04489616	      0.00283170	     -0.04975196	      0.12428987	      0.08590894	     -0.00801914	     -0.00951683	     -0.04091033	     -0.06323517	     -0.15287432	     -0.18162585	      0.00000079	     -0.32847694	      0.00000060	     -0.00000086	     76.40890748	    149.13093018	     14.05089806	     -9.25037447	      1.81568431	     29.72571128	    -76.40890748	   -149.13093018	    -14.05089806	      4.04876788	     -2.21975731	      2.84934952	     19.31653059	     17.17061678	     10.50735055	     -3.85301271	     -0.44866030	      7.76761452	    -19.31653059	    -17.17061678	    -10.50735055	     -0.17868116	      0.20337563	      0.04501405	   -793.49458894	   -714.23488938	    224.07005648	    -16.49282937	     17.83906624	     -1.64594333	    793.49458894	    714.23488938	   -224.07005648	    104.09389109	    -14.42126004	    322.76017889	      0.00000000	      0.00000000	      0.00000000	      0.00000000	      0.00000000	      0.00000000	      0.00000000	      0.00000000	      0.00000000	      0.00000000	      0.00000000	      0.00000000	    168.15404608	     27.89915501	      0.00000000	   1090.85862058
      0.16458509	      0.01278249	      0.01737952	     57.04406392	     -5.94240269	      0.00000000	    583.54405170	    380.83120805	      0.00000000	      0.00000000	      0.00000000	      0.00000000	      0.00000000	      0.00000000	      0.00000000	      0.00000000	      0.00000001	      0.00000000	      0.03108988	      0.02380999	      0.03497401	      0.03246324	      0.05955707	      0.05922640	      0.05632116	      0.05243028	      0.04769641	      0.04282072	      0.01525851	      0.01651186	      0.06550154	      0.04489616	      0.00272142	     -0.04983148	      0.12473615	      0.08617017	     -0.00782869	     -0.00948431	     -0.04098278	     -0.06336361	     -0.15309672	     -0.18191601	      0.00000079	     -0.32847694	      0.00000060	     -0.00000086	     77.60205612	    148.09807392	     13.52713516	     -8.99728925	      1.84538533	     30.22346448	    -77.60205612	   -148.09807392	    -13.52713516	      3.99659575	     -2.24137581	      2.79975298	     19.44941359	     17.14741856	     10.46548953	     -3.83672004	     -0.45073115	      7.81954303	    -19.44941359	    -17.14741856	    -10.46548953	     -0.17911034	      0.20558933	      0.04526778	   -796.40587593	   -714.83365081	    224.22856051	    -16.48481493	     17.89298051	     -1.60709253	    796.40587593	    714.83365081	   -224.22856051	    104.15846680	    -14.47052131	    323.91349432	      0.00000000	      0.00000000	      0.00000000	      0.00000000	      0.00000000	      0.00000000	      0.00000000	      0.00000000	      0.00000000	      0.00000000	      0.00000000	      0.00000000	    167.74415637	     27.96140417	      0.00000000	   1093.40199144
      0.16485030	      0.01279902	      0.01743065	     57.18775824	     -5.96818697	      0.00000000	    586.40847693	    382.30269431	      0.00000000	      0.00000000	      0.00000000	      0.00000000	      0.00000000	      0.00000000	      0.00000000	      0.00000000	      0.00000001	      0.00000000	      0.03108581	      0.02380763	      0.03499044	      0.03247251	      0.05957064	      0.05922875	      0.05631621	      0.05242166	      0.04768148	      0.04280268	      0.01525851	      0.01651186	      0.06550154	      0.04489616	      0.00259016	     -0.04992568	      0.12526458	      0.08648034	     -0.00760259	     -0.00944494	     -0.04106712	     -0.06351758	     -0.15336168	     -0.18226076	      0.00000079	     -0.32847694	      0.00000060	     -0.00000086	     78.64544138	    144.76531294	     12.85119940	     -8.62114368	      1.86348101	     30.68287232	    -78.64544138	   -144.76531294	    -12.85119940	      3.87671477	     -2.24814452	      2.68472450	     19.78772935	     17.17411203	     10.41854501	     -3.81686334	     -0.45852458	      7.95699313	    -19.78772935	    -17.17411203	    -10.41854501	     -0.18111354	      0.21322731	      0.04063487	   -800.52292014	   -715.09388478	    224.59583554	    -16.47285464	     17.97045380	     -1.59349651	    800.52292014	    715.09388478	   -224.59583554	    104.30118359	    -14.53977253	    325.56143379	      0.00000000	      0.00000000	      0.00000000	      0.00000000	      0.00000000	      0.00000000	      0.00000000	      0.00000000	      0.00000000	      0.00000000	      0.00000000	      0.00000000	    165.24906839	     28.19663875	      0.00000000	   1096.64921423
